<svg width="221" height="42" viewBox="0 0 221 42" fill="none" xmlns="http://www.w3.org/2000/svg">
<rect width="42" height="42" rx="21" fill="white"/>
<path fill-rule="evenodd" clip-rule="evenodd" d="M12.139 13.626C14.5621 17.6493 16.9389 21.7027 19.298 25.7621L22.9395 25.7635L23.1719 26.1565C24.5784 28.5346 25.5644 30.2132 25.5644 30.2292C25.5644 30.2387 23.5542 30.243 21.0973 30.2388L16.6302 30.2313C13.3894 24.7094 10.1653 19.1752 6.86788 13.6854L6.7207 13.4404H12.0272L12.139 13.626Z" fill="black"/>
<path d="M29.0238 14.0247C28.3972 13.7817 27.8355 13.6352 27.0411 13.5074C26.7617 13.4625 26.1614 13.4569 20.6688 13.4484C17.3337 13.4431 14.6113 13.4492 14.619 13.4619C16.7323 16.938 18.7498 20.4724 20.8191 23.9737L20.8937 24.0999H23.5325C25.2158 24.0999 26.1713 24.0895 26.1713 24.0711C26.1713 24.0553 26.1051 23.9317 26.0241 23.7965C25.2263 22.4643 24.4451 21.1224 23.6561 19.7853C23.07 18.7922 22.5905 17.9671 22.5905 17.9518C22.5905 17.9132 25.9637 17.9154 26.2935 17.9542C27.2105 18.0623 27.9575 18.408 28.617 19.0295C29.4288 19.7944 29.8473 20.7515 29.8473 21.8433C29.8473 22.9253 29.4582 23.8337 28.6637 24.6066C28.2979 24.9624 28.0546 25.1371 27.6418 25.3401C27.1846 25.565 26.9127 25.639 25.8375 25.8316C25.6892 25.8582 25.6128 25.8851 25.6183 25.9089C25.6268 25.9463 25.9395 26.4856 26.6265 27.6481C27.0769 28.4104 27.5014 29.1939 27.9796 29.9399L28.0212 30.0048L28.4543 29.8625C29.3794 29.5584 30.0718 29.2213 30.7948 28.723C32.5784 27.4935 33.8383 25.6209 34.2733 23.5525C34.4431 22.745 34.4901 21.5864 34.3849 20.801C34.2058 19.4634 33.7463 18.2596 32.9976 17.1668C32.0307 15.7553 30.6291 14.647 29.0238 14.0247Z" fill="black"/>
<path d="M56.1562 30V12.8672H59.7891V27H66.7383V30H56.1562ZM79.5938 30H69.7266V12.8672H79.5938V15.8438H73.3594V19.6055H79.1602V22.582H73.3594V27H79.5938V30ZM89.6836 20.3789H96.4805V29.2617C95.582 29.5586 94.6484 29.7969 93.6797 29.9766C92.7109 30.1484 91.6133 30.2344 90.3867 30.2344C88.6836 30.2344 87.2383 29.8984 86.0508 29.2266C84.8633 28.5547 83.9609 27.5625 83.3438 26.25C82.7266 24.9375 82.418 23.3242 82.418 21.4102C82.418 19.6133 82.7617 18.0586 83.4492 16.7461C84.1445 15.4336 85.1562 14.418 86.4844 13.6992C87.8203 12.9805 89.4492 12.6211 91.3711 12.6211C92.2773 12.6211 93.1719 12.7188 94.0547 12.9141C94.9375 13.1094 95.7383 13.3633 96.457 13.6758L95.25 16.582C94.7266 16.3164 94.1289 16.0938 93.457 15.9141C92.7852 15.7344 92.082 15.6445 91.3477 15.6445C90.293 15.6445 89.375 15.8867 88.5938 16.3711C87.8203 16.8555 87.2188 17.5352 86.7891 18.4102C86.3672 19.2773 86.1562 20.3008 86.1562 21.4805C86.1562 22.5977 86.3086 23.5898 86.6133 24.457C86.918 25.3164 87.3984 25.9922 88.0547 26.4844C88.7109 26.9688 89.5664 27.2109 90.6211 27.2109C91.1367 27.2109 91.5703 27.1875 91.9219 27.1406C92.2812 27.0859 92.6172 27.0312 92.9297 26.9766V23.4023H89.6836V20.3789ZM111.059 30L109.816 25.9219H103.57L102.328 30H98.4141L104.461 12.7969H108.902L114.973 30H111.059ZM108.949 22.875L107.707 18.8906C107.629 18.625 107.523 18.2852 107.391 17.8711C107.266 17.4492 107.137 17.0234 107.004 16.5938C106.879 16.1562 106.777 15.7773 106.699 15.457C106.621 15.7773 106.512 16.1758 106.371 16.6523C106.238 17.1211 106.109 17.5664 105.984 17.9883C105.859 18.4102 105.77 18.7109 105.715 18.8906L104.484 22.875H108.949ZM117.141 30V12.8672H120.773V27H127.723V30H117.141ZM151.16 21.2695C151.16 23.1992 150.789 24.8125 150.047 26.1094C149.312 27.3984 148.246 28.3711 146.848 29.0273C145.449 29.6758 143.766 30 141.797 30H136.945V12.8672H142.324C144.121 12.8672 145.68 13.1875 147 13.8281C148.32 14.4609 149.344 15.4023 150.07 16.6523C150.797 17.8945 151.16 19.4336 151.16 21.2695ZM147.387 21.3633C147.387 20.0977 147.199 19.0586 146.824 18.2461C146.457 17.4258 145.91 16.8203 145.184 16.4297C144.465 16.0391 143.574 15.8438 142.512 15.8438H140.578V27H142.137C143.91 27 145.227 26.5273 146.086 25.582C146.953 24.6367 147.387 23.2305 147.387 21.3633ZM170.262 21.4102C170.262 22.7305 170.098 23.9336 169.77 25.0195C169.441 26.0977 168.941 27.0273 168.27 27.8086C167.605 28.5898 166.762 29.1914 165.738 29.6133C164.715 30.0273 163.504 30.2344 162.105 30.2344C160.707 30.2344 159.496 30.0273 158.473 29.6133C157.449 29.1914 156.602 28.5898 155.93 27.8086C155.266 27.0273 154.77 26.0938 154.441 25.0078C154.113 23.9219 153.949 22.7148 153.949 21.3867C153.949 19.6133 154.238 18.0703 154.816 16.7578C155.402 15.4375 156.301 14.4141 157.512 13.6875C158.723 12.9609 160.262 12.5977 162.129 12.5977C163.988 12.5977 165.516 12.9609 166.711 13.6875C167.914 14.4141 168.805 15.4375 169.383 16.7578C169.969 18.0781 170.262 19.6289 170.262 21.4102ZM157.758 21.4102C157.758 22.6055 157.906 23.6367 158.203 24.5039C158.508 25.3633 158.98 26.0273 159.621 26.4961C160.262 26.957 161.09 27.1875 162.105 27.1875C163.137 27.1875 163.973 26.957 164.613 26.4961C165.254 26.0273 165.719 25.3633 166.008 24.5039C166.305 23.6367 166.453 22.6055 166.453 21.4102C166.453 19.6133 166.117 18.1992 165.445 17.168C164.773 16.1367 163.668 15.6211 162.129 15.6211C161.105 15.6211 160.27 15.8555 159.621 16.3242C158.98 16.7852 158.508 17.4492 158.203 18.3164C157.906 19.1758 157.758 20.207 157.758 21.4102ZM184.98 30H172.23V27.6445L180.445 15.8672H172.453V12.8672H184.758V15.2109L176.555 27H184.98V30ZM203.262 21.4102C203.262 22.7305 203.098 23.9336 202.77 25.0195C202.441 26.0977 201.941 27.0273 201.27 27.8086C200.605 28.5898 199.762 29.1914 198.738 29.6133C197.715 30.0273 196.504 30.2344 195.105 30.2344C193.707 30.2344 192.496 30.0273 191.473 29.6133C190.449 29.1914 189.602 28.5898 188.93 27.8086C188.266 27.0273 187.77 26.0938 187.441 25.0078C187.113 23.9219 186.949 22.7148 186.949 21.3867C186.949 19.6133 187.238 18.0703 187.816 16.7578C188.402 15.4375 189.301 14.4141 190.512 13.6875C191.723 12.9609 193.262 12.5977 195.129 12.5977C196.988 12.5977 198.516 12.9609 199.711 13.6875C200.914 14.4141 201.805 15.4375 202.383 16.7578C202.969 18.0781 203.262 19.6289 203.262 21.4102ZM190.758 21.4102C190.758 22.6055 190.906 23.6367 191.203 24.5039C191.508 25.3633 191.98 26.0273 192.621 26.4961C193.262 26.957 194.09 27.1875 195.105 27.1875C196.137 27.1875 196.973 26.957 197.613 26.4961C198.254 26.0273 198.719 25.3633 199.008 24.5039C199.305 23.6367 199.453 22.6055 199.453 21.4102C199.453 19.6133 199.117 18.1992 198.445 17.168C197.773 16.1367 196.668 15.6211 195.129 15.6211C194.105 15.6211 193.27 15.8555 192.621 16.3242C191.98 16.7852 191.508 17.4492 191.203 18.3164C190.906 19.1758 190.758 20.207 190.758 21.4102ZM211.805 12.8672C213.359 12.8672 214.641 13.0547 215.648 13.4297C216.664 13.8047 217.418 14.3711 217.91 15.1289C218.402 15.8867 218.648 16.8438 218.648 18C218.648 18.7812 218.5 19.4648 218.203 20.0508C217.906 20.6367 217.516 21.1328 217.031 21.5391C216.547 21.9453 216.023 22.2773 215.461 22.5352L220.5 30H216.469L212.379 23.4258H210.445V30H206.812V12.8672H211.805ZM211.547 15.8438H210.445V20.4727H211.617C212.82 20.4727 213.68 20.2734 214.195 19.875C214.719 19.4688 214.98 18.875 214.98 18.0938C214.98 17.2812 214.699 16.7031 214.137 16.3594C213.582 16.0156 212.719 15.8438 211.547 15.8438Z" fill="white"/>
</svg>
